<?xml version="1.0" standalone="no"?><!DOCTYPE svg PUBLIC "-//W3C//DTD SVG 1.1//EN" "http://www.w3.org/Graphics/SVG/1.1/DTD/svg11.dtd"><svg t="1743386914161" class="icon" viewBox="0 0 1024 1024" version="1.1" xmlns="http://www.w3.org/2000/svg" p-id="16572" xmlns:xlink="http://www.w3.org/1999/xlink" width="200" height="200"><path d="M881 660H212c-22.1 0-40-17.9-40-40V276c0-22.1 17.9-40 40-40h669c22.1 0 40 17.9 40 40v344c0 22-17.9 40-40 40zM212 276v344h669V276H212z" fill="#858585" p-id="16573"></path><path d="M319.9 373.2h-63.8c-11.1 0-20.1-9-20.1-20.1 0-11.1 9-20.1 20.1-20.1h63.8c11.1 0 20.1 9 20.1 20.1 0.1 11.1-9 20.1-20.1 20.1z m0-0.2zM447.9 373.2h-63.8c-11.1 0-20.1-9-20.1-20.1 0-11.1 9-20.1 20.1-20.1h63.8c11.1 0 20.1 9 20.1 20.1 0 11.1-9 20.1-20.1 20.1z m0-0.2zM575.7 375.2h-63.8c-11.1 0-20.1-9-20.1-20.1 0-11.1 9-20.1 20.1-20.1h63.8c11.1 0 20.1 9 20.1 20.1 0 11.1-9 20.1-20.1 20.1z m0-0.2zM703.9 375.3h-63.8c-11.1 0-20.1-9-20.1-20.1 0-11.1 9-20.1 20.1-20.1h63.8c11.1 0 20.1 9 20.1 20.1 0 11.1-9 20.1-20.1 20.1z m0-0.3zM832.2 375.1h-63.8c-11.1 0-20.1-9-20.1-20.1 0-11.1 9-20.1 20.1-20.1h63.8c11.1 0 20.1 9 20.1 20.1 0.1 11.1-9 20.1-20.1 20.1z m0-0.2zM832.3 536.6h-63.8c-11.1 0-20.1-9-20.1-20.1 0-11.1 9-20.1 20.1-20.1h63.8c11.1 0 20.1 9 20.1 20.1 0.1 11.1-9 20.1-20.1 20.1z m0-0.2zM322.2 537.2h-63.8c-11.1 0-20.1-9-20.1-20.1 0-11.1 9-20.1 20.1-20.1h63.8c11.1 0 20.1 9 20.1 20.1 0 11.1-9 20.1-20.1 20.1z m0-0.2zM381.5 538.2c-11 0-20-8.9-20-19.9 0-11 8.9-20 19.9-20.1l326.4-0.9h0.1c11 0 20 8.9 20 19.9 0 11-8.9 20-19.9 20.1l-326.5 0.9z" fill="#858585" p-id="16574"></path></svg>