<?xml version="1.0" standalone="no"?><!DOCTYPE svg PUBLIC "-//W3C//DTD SVG 1.1//EN" "http://www.w3.org/Graphics/SVG/1.1/DTD/svg11.dtd"><svg t="1743386813757" class="icon" viewBox="0 0 1024 1024" version="1.1" xmlns="http://www.w3.org/2000/svg" p-id="12559" xmlns:xlink="http://www.w3.org/1999/xlink" width="200" height="200"><path d="M810.666667 405.333333a21.333333 21.333333 0 0 1 20.992 17.493334l0.341333 3.84v96c0 164.096-132.053333 298.069333-298.666667 308.650666V938.666667h128a21.333333 21.333333 0 0 1 3.84 42.325333L661.333333 981.333333h-298.666666a21.333333 21.333333 0 0 1-3.84-42.325333L362.666667 938.666667h128v-107.349334c-163.2-10.410667-293.12-139.093333-298.496-298.410666l-0.170667-10.24V426.666667a21.333333 21.333333 0 0 1 42.325333-3.84L234.666667 426.666667v96c0 146.986667 123.776 266.453333 276.949333 266.666666h0.682667l9.898666-0.170666c145.28-5.034667 261.845333-117.504 266.965334-256.938667l0.170666-9.557333V426.666667a21.333333 21.333333 0 0 1 21.333334-21.333334zM512 42.666667a170.666667 170.666667 0 0 1 170.666667 170.666666v282.538667a170.666667 170.666667 0 1 1-341.333334 0V213.333333a170.666667 170.666667 0 0 1 170.666667-170.666666z m0 42.666666a128 128 0 0 0-128 128v282.538667a128 128 0 1 0 256 0V213.333333a128 128 0 0 0-128-128z" fill="#888888" p-id="12560"></path></svg>